<svg width="512" height="512" viewBox="0 0 512 512" fill="none" xmlns="http://www.w3.org/2000/svg">
<rect width="512" height="512" rx="40"/>
<path d="M135.22 414C114.81 414 98.045 407.599 84.9244 394.797C71.8038 381.994 65.2435 364.246 65.2435 341.551C65.2435 337.186 65.5351 332.677 66.1182 328.021C66.7014 323.075 67.5761 317.983 68.7423 312.746L104.605 159.119H46L57.3712 105H185.078L136.095 322.347C135.803 324.093 135.366 326.13 134.783 328.458C134.491 330.785 134.345 333.695 134.345 337.186C134.345 344.17 136.532 349.261 140.906 352.462C145.571 355.662 150.965 357.263 157.088 357.263C163.502 357.263 169.042 356.535 173.707 355.08C178.372 353.626 184.204 351.443 191.201 348.534L205.196 400.034C193.534 405.271 182.163 408.908 171.083 410.945C160.003 412.982 148.049 414 135.22 414Z" fill="#3D9BD1"/>
<path d="M296.87 396.979V333.695L409.707 264.737V262.992L296.87 194.034V130.75L467 239.86V287.869L296.87 396.979Z" fill="#3D9BD1"/>
</svg>
